/* XPM */
static char * linux_xpm[] = {
"57 20 130 2",
"  	c #B8BCB8",
". 	c #3D4E3E",
"+ 	c #273229",
"@ 	c #B4BAB4",
"# 	c #B7BDB7",
"$ 	c #252A26",
"% 	c #030305",
"& 	c #010103",
"* 	c #565656",
"= 	c #9EAB9F",
"- 	c #0C0C0D",
"; 	c #050406",
"> 	c #020203",
", 	c #111111",
"' 	c #09090B",
") 	c #969796",
"! 	c #5C5D5F",
"~ 	c #EEEFF1",
"{ 	c #9D9D9C",
"] 	c #7D725B",
"^ 	c #EEBC07",
"/ 	c #F9D520",
"( 	c #A69454",
"_ 	c #000000",
": 	c #B6BCB6",
"< 	c #524629",
"[ 	c #D5B00C",
"} 	c #C58D02",
"| 	c #9B8453",
"1 	c #555556",
"2 	c #B1B9B1",
"3 	c #A9B6A8",
"4 	c #ADADAE",
"5 	c #B8B7B7",
"6 	c #CED0D5",
"7 	c #FFFFFF",
"8 	c #151515",
"9 	c #22281B",
"0 	c #B1BBB0",
"a 	c #AEBAAD",
"b 	c #0F100F",
"c 	c #FAFAF8",
"d 	c #FEFEFC",
"e 	c #FDFDFC",
"f 	c #6A6A6A",
"g 	c #425F40",
"h 	c #ADBCAB",
"i 	c #1D391D",
"j 	c #7A7A7A",
"k 	c #FFFFFE",
"l 	c #FCFCFB",
"m 	c #DDDBDC",
"n 	c #060606",
"o 	c #2A2B2C",
"p 	c #99B696",
"q 	c #ADBBAE",
"r 	c #0E0E10",
"s 	c #F7F7F6",
"t 	c #FDFDFB",
"u 	c #FAFAF9",
"v 	c #757574",
"w 	c #111112",
"x 	c #3E423B",
"y 	c #B3BCB3",
"z 	c #2C5A2C",
"A 	c #4C4C4C",
"B 	c #F8F8F7",
"C 	c #BCBCBB",
"D 	c #121314",
"E 	c #231A04",
"F 	c #606061",
"G 	c #FCFCFA",
"H 	c #FDFEFE",
"I 	c #B2B0AB",
"J 	c #0F0F11",
"K 	c #121317",
"L 	c #B4BAA6",
"M 	c #F3B90D",
"N 	c #D3A207",
"O 	c #7E7F82",
"P 	c #FEFEFD",
"Q 	c #FBFBFA",
"R 	c #F0EDEA",
"S 	c #BB9106",
"T 	c #000004",
"U 	c #A88B22",
"V 	c #B2BBAA",
"W 	c #F6BE0F",
"X 	c #F5BD0C",
"Y 	c #F7BE0C",
"Z 	c #493906",
"` 	c #383638",
" .	c #C9C9C9",
"..	c #EAB00A",
"+.	c #DEA208",
"@.	c #E9BF34",
"#.	c #ABB98D",
"$.	c #AFBAA8",
"%.	c #F5BD0D",
"&.	c #FBC50B",
"*.	c #E8E7E8",
"=.	c #D1D1D1",
"-.	c #20160D",
";.	c #F6BD0C",
">.	c #EBBD2C",
",.	c #B8BCB7",
"'.	c #DCA412",
").	c #F0B50B",
"!.	c #F8BF0C",
"~.	c #F8C00C",
"{.	c #724A04",
"].	c #2B2C2B",
"^.	c #292929",
"/.	c #323333",
"(.	c #534022",
"_.	c #F4BB0D",
":.	c #F5BC0C",
"<.	c #C2A228",
"[.	c #B6BCB5",
"}.	c #ABBAA9",
"|.	c #74822F",
"1.	c #805F08",
"2.	c #9EAF97",
"3.	c #ACB7A9",
"4.	c #967009",
"5.	c #8C9656",
"6.	c #B4BCB4",
"7.	c #B7BCB7",
"8.	c #A3B9A2",
"9.	c #B5BBB5",
"                                                                                                                  ",
"                  . + @                                                                                           ",
"              # $ % & * =                                                                                         ",
"                - ; > , '                                                                                         ",
"                ) ! ~ { >                                                                                         ",
"                ] ^ / ( &                   _ _ _ _ _       _ _                                       _ _         ",
"              : < [ } | 1 2               _ _       _ _     _ _                                       _ _         ",
"              3 4 5 6 7 8 9 0             _ _       _ _     _ _                                       _ _         ",
"            a b 7 c d e f & g             _ _           _ _ _ _ _ _     _ _ _ _ _   _ _ _ _ _ _   _ _ _ _ _ _     ",
"          h i j k l e 7 m n o p             _ _ _           _ _       _ _       _ _ _ _ _     _ _     _ _         ",
"          q r s t u t t e v w x                 _ _ _       _ _             _ _ _ _ _ _       _ _     _ _         ",
"        y z A e t B t t t C r D                     _ _     _ _         _ _ _   _ _ _ _               _ _         ",
"          E F d G c t t H I J K           _ _       _ _     _ _       _ _       _ _ _ _               _ _         ",
"        L M N O P Q t t R S T U           _ _       _ _     _ _   _ _ _ _     _ _ _ _ _               _ _   _ _   ",
"      V W X Y Z ` t t t  ...+.@.#.          _ _ _ _ _         _ _ _     _ _ _ _ _ _ _ _                 _ _ _     ",
"      $.%.X X &.*.P P =.-.;.;.X >.                                                                                ",
"      ,.'.).!.~.{.].^./.(._.:.<.[.                                                                                ",
"        [.}.|.1.2.      3.4.5.6.                                                                                  ",
"            7.8.9.                                                                                                ",
"                                                                                                                  "};
